<mxfile host="app.diagrams.net" modified="2023-09-02T02:13:02.394Z" agent="Mozilla/5.0 (Windows NT 10.0; Win64; x64) AppleWebKit/537.36 (KHTML, like Gecko) Chrome/116.0.0.0 Safari/537.36 Edg/116.0.1938.62" etag="HxAPy3wrxUDNjs5jXqZM" version="21.2.3" type="github">
  <diagram id="07fea595-8f29-1299-0266-81d95cde20df" name="Page-1">
    <mxGraphModel dx="813" dy="-1893" grid="1" gridSize="10" guides="1" tooltips="1" connect="1" arrows="1" fold="1" page="1" pageScale="1" pageWidth="1169" pageHeight="827" background="none" math="0" shadow="0">
      <root>
        <mxCell id="0" />
        <mxCell id="1" parent="0" />
        <mxCell id="644" value="&lt;font style=&quot;font-size: 30px&quot; color=&quot;#ffffff&quot;&gt;&lt;b&gt;&lt;span&gt;FOOD CHAIN&lt;/span&gt;&lt;br&gt;&lt;span&gt;CYCLE&lt;/span&gt;&lt;/b&gt;&lt;/font&gt;&lt;br&gt;" style="shape=hexagon;perimeter=hexagonPerimeter2;whiteSpace=wrap;html=1;shadow=0;labelBackgroundColor=none;strokeColor=#23445D;fillColor=#23445D;gradientColor=none;fontFamily=Helvetica;fontSize=23;fontColor=#23445d;align=center;strokeWidth=3;" parent="1" vertex="1">
          <mxGeometry x="428.57894736842115" y="2764.7982456140344" width="311.84210526315786" height="259.86842105263156" as="geometry" />
        </mxCell>
        <mxCell id="645" value="" style="triangle;whiteSpace=wrap;html=1;shadow=0;labelBackgroundColor=none;strokeColor=none;fillColor=#FFFFFF;fontFamily=Helvetica;fontSize=17;fontColor=#23445d;align=center;rotation=90;gradientColor=none;flipV=1;flipH=1;opacity=20;" parent="1" vertex="1">
          <mxGeometry x="309.5" y="2782.6666666666665" width="72" height="152" as="geometry" />
        </mxCell>
        <mxCell id="646" value="&lt;font style=&quot;font-size: 23px&quot;&gt;CLIMATE&lt;/font&gt;" style="shape=hexagon;perimeter=hexagonPerimeter2;whiteSpace=wrap;html=1;shadow=0;labelBackgroundColor=none;strokeColor=#23445D;fillColor=#ffffff;gradientColor=none;fontFamily=Helvetica;fontSize=23;fontColor=#23445D;align=center;strokeWidth=3;" parent="1" vertex="1">
          <mxGeometry x="428.57894736842115" y="2504.6666666666665" width="311.84210526315786" height="259.86842105263156" as="geometry" />
        </mxCell>
        <mxCell id="647" value="&lt;font style=&quot;font-size: 23px&quot;&gt;PRODUCERS&lt;/font&gt;" style="shape=hexagon;perimeter=hexagonPerimeter2;whiteSpace=wrap;html=1;shadow=0;labelBackgroundColor=none;strokeColor=#23445D;fillColor=#FFFFFF;gradientColor=none;fontFamily=Helvetica;fontSize=23;fontColor=#23445d;align=center;strokeWidth=3;" parent="1" vertex="1">
          <mxGeometry x="662.6578947368422" y="2634.1995614035086" width="311.84210526315786" height="259.86842105263156" as="geometry" />
        </mxCell>
        <mxCell id="648" value="&lt;font style=&quot;font-size: 23px&quot;&gt;OMNIVORE&lt;/font&gt;" style="shape=hexagon;perimeter=hexagonPerimeter2;whiteSpace=wrap;html=1;shadow=0;labelBackgroundColor=none;strokeColor=#23445D;fillColor=#FFFFFF;gradientColor=none;fontFamily=Helvetica;fontSize=23;fontColor=#23445d;align=center;strokeWidth=3;" parent="1" vertex="1">
          <mxGeometry x="662.6578947368422" y="2894.2653508771928" width="311.84210526315786" height="259.86842105263156" as="geometry" />
        </mxCell>
        <mxCell id="649" value="&lt;font style=&quot;font-size: 23px&quot;&gt;HERBIVORE&lt;/font&gt;" style="shape=hexagon;perimeter=hexagonPerimeter2;whiteSpace=wrap;html=1;shadow=0;labelBackgroundColor=none;strokeColor=#23445D;fillColor=#FFFFFF;gradientColor=none;fontFamily=Helvetica;fontSize=23;fontColor=#23445d;align=center;strokeWidth=3;" parent="1" vertex="1">
          <mxGeometry x="428.57894736842115" y="3024.7982456140344" width="311.84210526315786" height="259.86842105263156" as="geometry" />
        </mxCell>
        <mxCell id="650" value="&lt;font style=&quot;font-size: 23px&quot;&gt;CARNIVORE&lt;/font&gt;" style="shape=hexagon;perimeter=hexagonPerimeter2;whiteSpace=wrap;html=1;shadow=0;labelBackgroundColor=none;strokeColor=#23445D;fillColor=#FFFFFF;gradientColor=none;fontFamily=Helvetica;fontSize=23;fontColor=#23445d;align=center;strokeWidth=3;" parent="1" vertex="1">
          <mxGeometry x="194.5" y="2894.2653508771928" width="311.84210526315786" height="259.86842105263156" as="geometry" />
        </mxCell>
        <mxCell id="651" value="&lt;font style=&quot;font-size: 23px;&quot;&gt;DECOMPOSERS&lt;/font&gt;" style="shape=hexagon;perimeter=hexagonPerimeter2;whiteSpace=wrap;html=1;shadow=0;labelBackgroundColor=none;strokeColor=#23445D;fillColor=#ffffff;gradientColor=none;fontFamily=Helvetica;fontSize=23;fontColor=#23445D;align=center;strokeWidth=3;" parent="1" vertex="1">
          <mxGeometry x="194.5000000000001" y="2634.1995614035086" width="311.84210526315786" height="259.86842105263156" as="geometry" />
        </mxCell>
        <mxCell id="652" value="" style="triangle;whiteSpace=wrap;html=1;shadow=0;labelBackgroundColor=none;strokeColor=none;fillColor=#23445D;fontFamily=Helvetica;fontSize=17;fontColor=#23445d;align=center;rotation=31;gradientColor=none;strokeWidth=3;" parent="1" vertex="1">
          <mxGeometry x="700" y="2668.6666666666665" width="35" height="73" as="geometry" />
        </mxCell>
        <mxCell id="653" value="" style="triangle;whiteSpace=wrap;html=1;shadow=0;labelBackgroundColor=none;strokeColor=none;fillColor=#23445D;fontFamily=Helvetica;fontSize=17;fontColor=#23445d;align=center;rotation=31;gradientColor=none;flipH=1;strokeWidth=3;" parent="1" vertex="1">
          <mxGeometry x="434.5" y="3044.666666666666" width="35" height="73" as="geometry" />
        </mxCell>
        <mxCell id="654" value="" style="triangle;whiteSpace=wrap;html=1;shadow=0;labelBackgroundColor=none;strokeColor=none;fillColor=#23445D;fontFamily=Helvetica;fontSize=17;fontColor=#23445d;align=center;rotation=329;gradientColor=none;strokeWidth=3;" parent="1" vertex="1">
          <mxGeometry x="464.5" y="2653.6666666666665" width="35" height="73" as="geometry" />
        </mxCell>
        <mxCell id="655" value="" style="triangle;whiteSpace=wrap;html=1;shadow=0;labelBackgroundColor=none;strokeColor=none;fillColor=#23445D;fontFamily=Helvetica;fontSize=17;fontColor=#23445d;align=center;rotation=329;gradientColor=none;flipH=1;strokeWidth=3;" parent="1" vertex="1">
          <mxGeometry x="667.5" y="3059.666666666666" width="35" height="73" as="geometry" />
        </mxCell>
        <mxCell id="656" value="" style="triangle;whiteSpace=wrap;html=1;shadow=0;labelBackgroundColor=none;strokeColor=none;fillColor=#23445D;fontFamily=Helvetica;fontSize=17;fontColor=#23445d;align=center;rotation=90;gradientColor=none;strokeWidth=3;" parent="1" vertex="1">
          <mxGeometry x="801.078947368421" y="2874.1666666666665" width="35" height="73" as="geometry" />
        </mxCell>
        <mxCell id="657" value="" style="triangle;whiteSpace=wrap;html=1;shadow=0;labelBackgroundColor=none;strokeColor=none;fillColor=#23445D;fontFamily=Helvetica;fontSize=17;fontColor=#23445d;align=center;rotation=90;gradientColor=none;flipH=1;strokeWidth=3;" parent="1" vertex="1">
          <mxGeometry x="332.92105263157896" y="2840.1666666666665" width="35" height="73" as="geometry" />
        </mxCell>
        <mxCell id="kRxnNbhITYmUJwOKT5Ae-663" value="" style="edgeStyle=orthogonalEdgeStyle;rounded=0;orthogonalLoop=1;jettySize=auto;html=1;" edge="1" parent="1" source="kRxnNbhITYmUJwOKT5Ae-660" target="kRxnNbhITYmUJwOKT5Ae-661">
          <mxGeometry relative="1" as="geometry" />
        </mxCell>
        <mxCell id="kRxnNbhITYmUJwOKT5Ae-673" style="edgeStyle=orthogonalEdgeStyle;rounded=0;orthogonalLoop=1;jettySize=auto;html=1;exitX=0.5;exitY=1;exitDx=0;exitDy=0;" edge="1" parent="1" source="kRxnNbhITYmUJwOKT5Ae-660">
          <mxGeometry relative="1" as="geometry">
            <mxPoint x="446" y="3510" as="targetPoint" />
          </mxGeometry>
        </mxCell>
        <mxCell id="kRxnNbhITYmUJwOKT5Ae-660" value="数据采集" style="rounded=1;whiteSpace=wrap;html=1;fillColor=#ffe6cc;strokeColor=#d79b00;" vertex="1" parent="1">
          <mxGeometry x="392.00000000000006" y="3450" width="120" height="60" as="geometry" />
        </mxCell>
        <mxCell id="kRxnNbhITYmUJwOKT5Ae-664" value="" style="edgeStyle=orthogonalEdgeStyle;rounded=0;orthogonalLoop=1;jettySize=auto;html=1;" edge="1" parent="1" source="kRxnNbhITYmUJwOKT5Ae-661" target="kRxnNbhITYmUJwOKT5Ae-662">
          <mxGeometry relative="1" as="geometry" />
        </mxCell>
        <mxCell id="kRxnNbhITYmUJwOKT5Ae-661" value="数据分析" style="rounded=1;whiteSpace=wrap;html=1;fillColor=#f8cecc;strokeColor=#b85450;" vertex="1" parent="1">
          <mxGeometry x="386.34000000000003" y="3570" width="120" height="60" as="geometry" />
        </mxCell>
        <mxCell id="kRxnNbhITYmUJwOKT5Ae-662" value="信息化平台" style="rounded=1;whiteSpace=wrap;html=1;fillColor=#e1d5e7;strokeColor=#9673a6;" vertex="1" parent="1">
          <mxGeometry x="386.34000000000003" y="3680" width="120" height="60" as="geometry" />
        </mxCell>
        <mxCell id="kRxnNbhITYmUJwOKT5Ae-670" value="集成物理反馈数据" style="text;html=1;align=center;verticalAlign=middle;resizable=0;points=[];autosize=1;strokeColor=none;fillColor=none;" vertex="1" parent="1">
          <mxGeometry x="440" y="3520" width="120" height="30" as="geometry" />
        </mxCell>
        <mxCell id="kRxnNbhITYmUJwOKT5Ae-672" value="以深度学习预测" style="text;html=1;align=center;verticalAlign=middle;resizable=0;points=[];autosize=1;strokeColor=none;fillColor=none;" vertex="1" parent="1">
          <mxGeometry x="440" y="3630" width="110" height="30" as="geometry" />
        </mxCell>
        <mxCell id="kRxnNbhITYmUJwOKT5Ae-680" value="" style="edgeStyle=orthogonalEdgeStyle;rounded=0;orthogonalLoop=1;jettySize=auto;html=1;" edge="1" parent="1" source="kRxnNbhITYmUJwOKT5Ae-675" target="kRxnNbhITYmUJwOKT5Ae-677">
          <mxGeometry relative="1" as="geometry" />
        </mxCell>
        <mxCell id="kRxnNbhITYmUJwOKT5Ae-675" value="数据采集" style="rounded=1;whiteSpace=wrap;html=1;fillColor=#dae8fc;strokeColor=#6c8ebf;" vertex="1" parent="1">
          <mxGeometry x="40" y="3830" width="60" height="130" as="geometry" />
        </mxCell>
        <mxCell id="kRxnNbhITYmUJwOKT5Ae-681" value="" style="edgeStyle=orthogonalEdgeStyle;rounded=0;orthogonalLoop=1;jettySize=auto;html=1;" edge="1" parent="1" source="kRxnNbhITYmUJwOKT5Ae-677" target="kRxnNbhITYmUJwOKT5Ae-678">
          <mxGeometry relative="1" as="geometry" />
        </mxCell>
        <mxCell id="kRxnNbhITYmUJwOKT5Ae-677" value="数据分析" style="rounded=1;whiteSpace=wrap;html=1;fillColor=#ffe6cc;strokeColor=#d79b00;" vertex="1" parent="1">
          <mxGeometry x="180" y="3830" width="60" height="130" as="geometry" />
        </mxCell>
        <mxCell id="kRxnNbhITYmUJwOKT5Ae-682" value="" style="edgeStyle=orthogonalEdgeStyle;rounded=0;orthogonalLoop=1;jettySize=auto;html=1;" edge="1" parent="1" source="kRxnNbhITYmUJwOKT5Ae-678" target="kRxnNbhITYmUJwOKT5Ae-679">
          <mxGeometry relative="1" as="geometry" />
        </mxCell>
        <mxCell id="kRxnNbhITYmUJwOKT5Ae-678" value="信息化平台" style="rounded=1;whiteSpace=wrap;html=1;fillColor=#fff2cc;strokeColor=#d6b656;" vertex="1" parent="1">
          <mxGeometry x="321.5" y="3830" width="60" height="130" as="geometry" />
        </mxCell>
        <mxCell id="kRxnNbhITYmUJwOKT5Ae-679" value="数字孪生系统" style="rounded=1;whiteSpace=wrap;html=1;fillColor=#e1d5e7;strokeColor=#9673a6;" vertex="1" parent="1">
          <mxGeometry x="464.5" y="3830" width="60" height="130" as="geometry" />
        </mxCell>
        <mxCell id="kRxnNbhITYmUJwOKT5Ae-683" value="集成物理反馈" style="text;html=1;align=center;verticalAlign=middle;resizable=0;points=[];autosize=1;strokeColor=none;fillColor=none;" vertex="1" parent="1">
          <mxGeometry x="90" y="3858" width="100" height="30" as="geometry" />
        </mxCell>
        <mxCell id="kRxnNbhITYmUJwOKT5Ae-684" value="深度的学习预测" style="text;html=1;align=center;verticalAlign=middle;resizable=0;points=[];autosize=1;strokeColor=none;fillColor=none;" vertex="1" parent="1">
          <mxGeometry x="225" y="3858" width="110" height="30" as="geometry" />
        </mxCell>
        <mxCell id="kRxnNbhITYmUJwOKT5Ae-685" value="数字化模拟" style="text;html=1;align=center;verticalAlign=middle;resizable=0;points=[];autosize=1;strokeColor=none;fillColor=none;" vertex="1" parent="1">
          <mxGeometry x="390" y="3858" width="80" height="30" as="geometry" />
        </mxCell>
        <mxCell id="kRxnNbhITYmUJwOKT5Ae-692" value="" style="edgeStyle=orthogonalEdgeStyle;rounded=0;orthogonalLoop=1;jettySize=auto;html=1;" edge="1" parent="1" source="kRxnNbhITYmUJwOKT5Ae-686" target="kRxnNbhITYmUJwOKT5Ae-688">
          <mxGeometry relative="1" as="geometry" />
        </mxCell>
        <mxCell id="kRxnNbhITYmUJwOKT5Ae-686" value="" style="html=1;whiteSpace=wrap;shape=isoCube2;backgroundOutline=1;isoAngle=15;fillColor=#dae8fc;strokeColor=#6c8ebf;" vertex="1" parent="1">
          <mxGeometry x="180" y="3990" width="80" height="60" as="geometry" />
        </mxCell>
        <mxCell id="kRxnNbhITYmUJwOKT5Ae-687" value="" style="html=1;whiteSpace=wrap;shape=isoCube2;backgroundOutline=1;isoAngle=15;fillColor=#dae8fc;strokeColor=#6c8ebf;" vertex="1" parent="1">
          <mxGeometry x="180" y="4060" width="80" height="50" as="geometry" />
        </mxCell>
        <mxCell id="kRxnNbhITYmUJwOKT5Ae-693" value="" style="edgeStyle=orthogonalEdgeStyle;rounded=0;orthogonalLoop=1;jettySize=auto;html=1;" edge="1" parent="1" source="kRxnNbhITYmUJwOKT5Ae-688" target="kRxnNbhITYmUJwOKT5Ae-690">
          <mxGeometry relative="1" as="geometry" />
        </mxCell>
        <mxCell id="kRxnNbhITYmUJwOKT5Ae-688" value="" style="html=1;whiteSpace=wrap;shape=isoCube2;backgroundOutline=1;isoAngle=15;fillColor=#f8cecc;strokeColor=#b85450;" vertex="1" parent="1">
          <mxGeometry x="321.5" y="3990" width="80" height="60" as="geometry" />
        </mxCell>
        <mxCell id="kRxnNbhITYmUJwOKT5Ae-689" value="" style="html=1;whiteSpace=wrap;shape=isoCube2;backgroundOutline=1;isoAngle=15;fillColor=#f8cecc;strokeColor=#b85450;" vertex="1" parent="1">
          <mxGeometry x="321.5" y="4060" width="80" height="50" as="geometry" />
        </mxCell>
        <mxCell id="kRxnNbhITYmUJwOKT5Ae-690" value="" style="html=1;whiteSpace=wrap;shape=isoCube2;backgroundOutline=1;isoAngle=15;fillColor=#ffe6cc;strokeColor=#d79b00;" vertex="1" parent="1">
          <mxGeometry x="470" y="3990" width="80" height="60" as="geometry" />
        </mxCell>
        <mxCell id="kRxnNbhITYmUJwOKT5Ae-691" value="" style="html=1;whiteSpace=wrap;shape=isoCube2;backgroundOutline=1;isoAngle=15;fillColor=#ffe6cc;strokeColor=#d79b00;" vertex="1" parent="1">
          <mxGeometry x="470" y="4060" width="80" height="50" as="geometry" />
        </mxCell>
        <mxCell id="kRxnNbhITYmUJwOKT5Ae-694" value="conv" style="text;html=1;align=center;verticalAlign=middle;resizable=0;points=[];autosize=1;strokeColor=none;fillColor=none;" vertex="1" parent="1">
          <mxGeometry x="265" y="3988" width="50" height="30" as="geometry" />
        </mxCell>
        <mxCell id="kRxnNbhITYmUJwOKT5Ae-695" value="conv" style="text;html=1;align=center;verticalAlign=middle;resizable=0;points=[];autosize=1;strokeColor=none;fillColor=none;" vertex="1" parent="1">
          <mxGeometry x="395" y="3988" width="50" height="30" as="geometry" />
        </mxCell>
        <mxCell id="kRxnNbhITYmUJwOKT5Ae-696" value="&lt;font style=&quot;font-size: 14px;&quot;&gt;&lt;b&gt;St-0&amp;nbsp; &amp;nbsp; &amp;nbsp; &amp;nbsp; &amp;nbsp; &amp;nbsp; &amp;nbsp; &amp;nbsp; &amp;nbsp; &amp;nbsp; St-1&amp;nbsp; &amp;nbsp; &amp;nbsp; &amp;nbsp; &amp;nbsp; &amp;nbsp; &amp;nbsp; &amp;nbsp; &amp;nbsp; &amp;nbsp; &amp;nbsp; &amp;nbsp; &amp;nbsp;St-2&amp;nbsp; &amp;nbsp; &amp;nbsp; &amp;nbsp; &amp;nbsp; &amp;nbsp; &amp;nbsp; &amp;nbsp; &amp;nbsp; &amp;nbsp; ......&amp;nbsp; &amp;nbsp; &amp;nbsp; &amp;nbsp; &amp;nbsp; &amp;nbsp; &amp;nbsp; &amp;nbsp; &amp;nbsp; St-T+1&lt;/b&gt;&lt;/font&gt;" style="shape=ext;double=1;rounded=0;whiteSpace=wrap;html=1;fillColor=#dae8fc;strokeColor=#6c8ebf;" vertex="1" parent="1">
          <mxGeometry x="117" y="4310" width="510" height="60" as="geometry" />
        </mxCell>
        <mxCell id="kRxnNbhITYmUJwOKT5Ae-697" value="" style="shape=ext;double=1;rounded=0;whiteSpace=wrap;html=1;fillColor=#fff2cc;strokeColor=#d6b656;" vertex="1" parent="1">
          <mxGeometry x="115.5" y="4440" width="513" height="80" as="geometry" />
        </mxCell>
        <mxCell id="kRxnNbhITYmUJwOKT5Ae-698" value="" style="shape=ext;double=1;rounded=1;whiteSpace=wrap;html=1;" vertex="1" parent="1">
          <mxGeometry x="120" y="4455" width="75" height="50" as="geometry" />
        </mxCell>
        <mxCell id="kRxnNbhITYmUJwOKT5Ae-699" value="&lt;b&gt;&lt;font style=&quot;font-size: 13px;&quot;&gt;conv&lt;/font&gt;&lt;/b&gt;" style="shape=ext;double=1;rounded=1;whiteSpace=wrap;html=1;fillColor=#f8cecc;strokeColor=#b85450;" vertex="1" parent="1">
          <mxGeometry x="120" y="4455" width="75" height="50" as="geometry" />
        </mxCell>
        <mxCell id="kRxnNbhITYmUJwOKT5Ae-705" value="&lt;b&gt;&lt;font style=&quot;font-size: 14px;&quot;&gt;......&lt;/font&gt;&lt;/b&gt;" style="shape=ext;double=1;rounded=1;whiteSpace=wrap;html=1;fillColor=#fff2cc;strokeColor=#FFF2CCC;" vertex="1" parent="1">
          <mxGeometry x="439.5" y="4455" width="75" height="50" as="geometry" />
        </mxCell>
        <mxCell id="kRxnNbhITYmUJwOKT5Ae-706" value="&lt;b&gt;&lt;font style=&quot;font-size: 13px;&quot;&gt;conv&lt;/font&gt;&lt;/b&gt;" style="shape=ext;double=1;rounded=1;whiteSpace=wrap;html=1;fillColor=#f8cecc;strokeColor=#b85450;" vertex="1" parent="1">
          <mxGeometry x="232.5" y="4455" width="75" height="50" as="geometry" />
        </mxCell>
        <mxCell id="kRxnNbhITYmUJwOKT5Ae-707" value="&lt;b&gt;&lt;font style=&quot;font-size: 13px;&quot;&gt;conv&lt;/font&gt;&lt;/b&gt;" style="shape=ext;double=1;rounded=1;whiteSpace=wrap;html=1;fillColor=#f8cecc;strokeColor=#b85450;" vertex="1" parent="1">
          <mxGeometry x="349.5" y="4455" width="75" height="50" as="geometry" />
        </mxCell>
        <mxCell id="kRxnNbhITYmUJwOKT5Ae-708" value="&lt;b&gt;&lt;font style=&quot;font-size: 13px;&quot;&gt;conv&lt;/font&gt;&lt;/b&gt;" style="shape=ext;double=1;rounded=1;whiteSpace=wrap;html=1;fillColor=#f8cecc;strokeColor=#b85450;" vertex="1" parent="1">
          <mxGeometry x="540" y="4455" width="75" height="50" as="geometry" />
        </mxCell>
        <mxCell id="kRxnNbhITYmUJwOKT5Ae-709" value="" style="endArrow=classic;html=1;rounded=0;exitX=0.056;exitY=1.023;exitDx=0;exitDy=0;exitPerimeter=0;entryX=0.057;entryY=0.032;entryDx=0;entryDy=0;entryPerimeter=0;strokeColor=#FF8000;strokeWidth=3;" edge="1" parent="1" source="kRxnNbhITYmUJwOKT5Ae-696" target="kRxnNbhITYmUJwOKT5Ae-697">
          <mxGeometry width="50" height="50" relative="1" as="geometry">
            <mxPoint x="430" y="4590" as="sourcePoint" />
            <mxPoint x="480" y="4540" as="targetPoint" />
          </mxGeometry>
        </mxCell>
        <mxCell id="kRxnNbhITYmUJwOKT5Ae-710" value="" style="endArrow=classic;html=1;rounded=0;exitX=0.056;exitY=1.023;exitDx=0;exitDy=0;exitPerimeter=0;entryX=0.057;entryY=0.032;entryDx=0;entryDy=0;entryPerimeter=0;strokeColor=#FF8000;strokeWidth=3;" edge="1" parent="1">
          <mxGeometry width="50" height="50" relative="1" as="geometry">
            <mxPoint x="256" y="4368" as="sourcePoint" />
            <mxPoint x="255" y="4440" as="targetPoint" />
          </mxGeometry>
        </mxCell>
        <mxCell id="kRxnNbhITYmUJwOKT5Ae-711" value="" style="endArrow=classic;html=1;rounded=0;exitX=0.056;exitY=1.023;exitDx=0;exitDy=0;exitPerimeter=0;entryX=0.057;entryY=0.032;entryDx=0;entryDy=0;entryPerimeter=0;strokeColor=#FF8000;strokeWidth=3;" edge="1" parent="1">
          <mxGeometry width="50" height="50" relative="1" as="geometry">
            <mxPoint x="377.34000000000003" y="4368" as="sourcePoint" />
            <mxPoint x="376.34000000000003" y="4440" as="targetPoint" />
          </mxGeometry>
        </mxCell>
        <mxCell id="kRxnNbhITYmUJwOKT5Ae-712" value="" style="endArrow=classic;html=1;rounded=0;exitX=0.056;exitY=1.023;exitDx=0;exitDy=0;exitPerimeter=0;entryX=0.057;entryY=0.032;entryDx=0;entryDy=0;entryPerimeter=0;strokeColor=#FF8000;strokeWidth=3;" edge="1" parent="1">
          <mxGeometry width="50" height="50" relative="1" as="geometry">
            <mxPoint x="578" y="4368" as="sourcePoint" />
            <mxPoint x="577" y="4440" as="targetPoint" />
          </mxGeometry>
        </mxCell>
        <mxCell id="kRxnNbhITYmUJwOKT5Ae-728" value="" style="edgeStyle=orthogonalEdgeStyle;rounded=0;orthogonalLoop=1;jettySize=auto;html=1;strokeColor=#97D077;strokeWidth=3;" edge="1" parent="1" source="kRxnNbhITYmUJwOKT5Ae-713" target="kRxnNbhITYmUJwOKT5Ae-727">
          <mxGeometry relative="1" as="geometry" />
        </mxCell>
        <mxCell id="kRxnNbhITYmUJwOKT5Ae-713" value="" style="rounded=1;whiteSpace=wrap;html=1;fillColor=#d5e8d4;strokeColor=#82b366;" vertex="1" parent="1">
          <mxGeometry x="80" y="4590" width="600" height="80" as="geometry" />
        </mxCell>
        <mxCell id="kRxnNbhITYmUJwOKT5Ae-717" value="" style="edgeStyle=orthogonalEdgeStyle;rounded=0;orthogonalLoop=1;jettySize=auto;html=1;strokeColor=#3399FF;strokeWidth=3;" edge="1" parent="1" source="kRxnNbhITYmUJwOKT5Ae-714" target="kRxnNbhITYmUJwOKT5Ae-715">
          <mxGeometry relative="1" as="geometry" />
        </mxCell>
        <mxCell id="kRxnNbhITYmUJwOKT5Ae-714" value="LSTM" style="rounded=1;whiteSpace=wrap;html=1;fillColor=#e1d5e7;strokeColor=#9673a6;" vertex="1" parent="1">
          <mxGeometry x="100" y="4599" width="95" height="60" as="geometry" />
        </mxCell>
        <mxCell id="kRxnNbhITYmUJwOKT5Ae-715" value="LSTM" style="rounded=1;whiteSpace=wrap;html=1;fillColor=#e1d5e7;strokeColor=#9673a6;" vertex="1" parent="1">
          <mxGeometry x="281.5" y="4599" width="98.5" height="60" as="geometry" />
        </mxCell>
        <mxCell id="kRxnNbhITYmUJwOKT5Ae-716" value="LSTM" style="rounded=1;whiteSpace=wrap;html=1;fillColor=#e1d5e7;strokeColor=#9673a6;" vertex="1" parent="1">
          <mxGeometry x="459.5" y="4599" width="100" height="60" as="geometry" />
        </mxCell>
        <mxCell id="kRxnNbhITYmUJwOKT5Ae-719" value="" style="edgeStyle=orthogonalEdgeStyle;rounded=0;orthogonalLoop=1;jettySize=auto;html=1;strokeColor=#3399FF;strokeWidth=3;entryX=0;entryY=0.5;entryDx=0;entryDy=0;" edge="1" parent="1" target="kRxnNbhITYmUJwOKT5Ae-716">
          <mxGeometry relative="1" as="geometry">
            <mxPoint x="380" y="4629" as="sourcePoint" />
            <mxPoint x="467" y="4628.5" as="targetPoint" />
          </mxGeometry>
        </mxCell>
        <mxCell id="kRxnNbhITYmUJwOKT5Ae-720" value="" style="edgeStyle=orthogonalEdgeStyle;rounded=0;orthogonalLoop=1;jettySize=auto;html=1;strokeColor=#3399FF;strokeWidth=3;exitX=1;exitY=0.5;exitDx=0;exitDy=0;" edge="1" parent="1" source="kRxnNbhITYmUJwOKT5Ae-716">
          <mxGeometry relative="1" as="geometry">
            <mxPoint x="570" y="4629.5" as="sourcePoint" />
            <mxPoint x="657" y="4629.5" as="targetPoint" />
            <Array as="points">
              <mxPoint x="608" y="4630" />
              <mxPoint x="608" y="4630" />
            </Array>
          </mxGeometry>
        </mxCell>
        <mxCell id="kRxnNbhITYmUJwOKT5Ae-721" value="" style="endArrow=classic;html=1;rounded=0;exitX=0.5;exitY=1;exitDx=0;exitDy=0;strokeColor=#A680B8;strokeWidth=4;entryX=0.129;entryY=-0.033;entryDx=0;entryDy=0;entryPerimeter=0;" edge="1" parent="1" source="kRxnNbhITYmUJwOKT5Ae-699" target="kRxnNbhITYmUJwOKT5Ae-713">
          <mxGeometry width="50" height="50" relative="1" as="geometry">
            <mxPoint x="430" y="4590" as="sourcePoint" />
            <mxPoint x="158" y="4580" as="targetPoint" />
          </mxGeometry>
        </mxCell>
        <mxCell id="kRxnNbhITYmUJwOKT5Ae-722" value="" style="endArrow=classic;html=1;rounded=0;exitX=0.5;exitY=1;exitDx=0;exitDy=0;strokeColor=#A680B8;strokeWidth=4;entryX=0.317;entryY=0.007;entryDx=0;entryDy=0;entryPerimeter=0;" edge="1" parent="1" source="kRxnNbhITYmUJwOKT5Ae-706" target="kRxnNbhITYmUJwOKT5Ae-713">
          <mxGeometry width="50" height="50" relative="1" as="geometry">
            <mxPoint x="255" y="4520" as="sourcePoint" />
            <mxPoint x="255" y="4587" as="targetPoint" />
            <Array as="points" />
          </mxGeometry>
        </mxCell>
        <mxCell id="kRxnNbhITYmUJwOKT5Ae-724" value="" style="endArrow=classic;html=1;rounded=0;exitX=0.5;exitY=1;exitDx=0;exitDy=0;strokeColor=#A680B8;strokeWidth=4;entryX=0.129;entryY=-0.033;entryDx=0;entryDy=0;entryPerimeter=0;" edge="1" parent="1">
          <mxGeometry width="50" height="50" relative="1" as="geometry">
            <mxPoint x="392.5" y="4505" as="sourcePoint" />
            <mxPoint x="391.5" y="4587" as="targetPoint" />
          </mxGeometry>
        </mxCell>
        <mxCell id="kRxnNbhITYmUJwOKT5Ae-725" value="" style="endArrow=classic;html=1;rounded=0;exitX=0.5;exitY=1;exitDx=0;exitDy=0;strokeColor=#A680B8;strokeWidth=4;entryX=0.129;entryY=-0.033;entryDx=0;entryDy=0;entryPerimeter=0;" edge="1" parent="1">
          <mxGeometry width="50" height="50" relative="1" as="geometry">
            <mxPoint x="581" y="4505" as="sourcePoint" />
            <mxPoint x="580" y="4587" as="targetPoint" />
          </mxGeometry>
        </mxCell>
        <mxCell id="kRxnNbhITYmUJwOKT5Ae-727" value="风速预测结果" style="ellipse;whiteSpace=wrap;html=1;fillColor=#cce5ff;strokeColor=#36393d;" vertex="1" parent="1">
          <mxGeometry x="320" y="4740" width="120" height="80" as="geometry" />
        </mxCell>
        <mxCell id="kRxnNbhITYmUJwOKT5Ae-730" value="" style="edgeStyle=orthogonalEdgeStyle;rounded=0;orthogonalLoop=1;jettySize=auto;html=1;" edge="1" parent="1" source="kRxnNbhITYmUJwOKT5Ae-729" target="kRxnNbhITYmUJwOKT5Ae-696">
          <mxGeometry relative="1" as="geometry" />
        </mxCell>
        <mxCell id="kRxnNbhITYmUJwOKT5Ae-729" value="&lt;font style=&quot;font-size: 13px;&quot;&gt;特征气象要素&lt;/font&gt;" style="rounded=1;whiteSpace=wrap;html=1;fillColor=#cdeb8b;strokeColor=#36393d;" vertex="1" parent="1">
          <mxGeometry x="312" y="4210" width="120" height="60" as="geometry" />
        </mxCell>
      </root>
    </mxGraphModel>
  </diagram>
</mxfile>
